<svg width="80" height="80" viewBox="0 0 80 80" fill="none" xmlns="http://www.w3.org/2000/svg">
<g clip-path="url(#clip0_0_637)">
<path d="M4 80H77.3333C78.4 80 79.2 79.5111 79.7333 78.5333C80.2667 77.5556 80.1778 76.6222 79.4667 75.7333L73.6 66.9333C72.8889 65.8667 71.9111 65.2444 70.6667 65.0667L39.4667 61.6C38.9333 61.6 38.5778 61.2444 38.4 60.5333L37.6 52.2667C37.4222 51.5556 37.0667 50.8889 36.5333 50.2667C36 49.6444 35.3778 49.1556 34.6667 48.8L30.4 47.7333L40 39.4667C41.0667 39.8222 41.9556 39.6444 42.6667 38.9333L44.5333 37.0667C45.0667 36.5333 45.3333 35.8667 45.3333 35.0667C45.3333 34.2667 45.0667 33.6 44.5333 33.0667L38.9333 27.4667C38.4 26.9333 37.7333 26.6667 36.9333 26.6667C36.1333 26.6667 35.4667 26.9333 34.9333 27.4667L33.0667 29.3333C32.3556 30.0444 32.1778 30.9333 32.5333 32L22.1333 44.2667L16.5333 25.6C16.1778 24.7111 15.6444 24 14.9333 23.4667C14.2222 22.9333 13.5111 22.6667 12.8 22.6667H2.66667C1.95556 22.6667 1.33333 22.9333 0.8 23.4667C0.266667 24 0 24.6222 0 25.3333V76C0 77.0667 0.4 78 1.2 78.8C2 79.6 2.93333 80 4 80ZM25.0667 46.4L24 46.1333L34.1333 34.1333L37.8667 37.8667L27.2 46.9333L25.0667 46.4ZM37.0667 29.3333L42.6667 34.9333L40.8 37.0667L34.9333 31.2L37.0667 29.3333ZM2.66667 25.3333H12.8C13.3333 25.3333 13.6889 25.6889 13.8667 26.4L19.7333 45.6C20.0889 47.0222 20.8889 47.9111 22.1333 48.2667L17.8667 53.3333L9.06667 54.6667C8.71111 54.6667 8.44444 54.8444 8.26667 55.2C8.08889 55.5556 8 55.9111 8 56.2667C8 56.6222 8.17778 56.8889 8.53333 57.0667C8.88889 57.2444 9.24444 57.3333 9.6 57.3333L17.8667 56L20.5333 60.2667L17.6 62.9333C17.2444 63.4667 17.1556 63.9556 17.3333 64.4C17.5111 64.8444 17.8667 65.1556 18.4 65.3333C18.9333 65.5111 19.3778 65.4222 19.7333 65.0667L22.1333 62.6667L24.2667 66.1333C24.4444 66.3111 24.7111 66.4444 25.0667 66.5333C25.4222 66.6222 25.7333 66.5778 26 66.4C26.2667 66.2222 26.4444 65.9556 26.5333 65.6C26.6222 65.2444 26.5778 64.8889 26.4 64.5333L20.2667 54.6667L25.0667 49.0667L33.8667 51.4667C34.4 51.6444 34.7556 52 34.9333 52.5333L35.7333 60.8C35.9111 61.6889 36.3111 62.4444 36.9333 63.0667C37.5556 63.6889 38.3111 64.0889 39.2 64.2667L70.4 67.7333C70.7556 67.9111 71.1111 68.1778 71.4667 68.5333L77.3333 77.3333H4C3.64444 77.3333 3.33333 77.2 3.06667 76.9333C2.8 76.6667 2.66667 76.3556 2.66667 76V25.3333ZM64.8 18.4L68.5333 14.6667C69.6 13.6 70.1333 12.3556 70.1333 10.9333C70.1333 9.51111 69.6 8.26666 68.5333 7.2L62.9333 1.6C61.8667 0.533333 60.5778 -7.62939e-06 59.0667 -7.62939e-06C57.5556 -7.62939e-06 56.2667 0.533333 55.2 1.6L51.4667 5.33333L50.6667 4.26666C49.7778 3.55555 48.8 3.2 47.7333 3.2C46.6667 3.2 45.6889 3.55555 44.8 4.26666L42.9333 6.13333C42.2222 7.02222 41.8667 8 41.8667 9.06667C41.8667 10.1333 42.2222 11.1111 42.9333 12L44 12.8L40.2667 16.5333C39.2 17.6 38.6667 18.8889 38.6667 20.4C38.6667 21.9111 39.2 23.2 40.2667 24.2667L45.8667 29.8667C46.9333 30.9333 48.1778 31.4667 49.6 31.4667C51.0222 31.4667 52.2667 30.9333 53.3333 29.8667L57.0667 26.1333L71.2 40.2667C72.0889 40.9778 73.0667 41.3333 74.1333 41.3333C75.2 41.3333 76.1778 40.9778 77.0667 40.2667L78.9333 38.4C79.6444 37.5111 80 36.5333 80 35.4667C80 34.4 79.6444 33.4222 78.9333 32.5333L64.8 18.4ZM45.0667 10.1333C44.7111 9.77777 44.5333 9.42222 44.5333 9.06667C44.5333 8.71111 44.7111 8.44444 45.0667 8.26666L46.9333 6.13333C47.1111 5.95555 47.3778 5.86666 47.7333 5.86666C48.0889 5.86666 48.4444 6.04444 48.8 6.39999L49.6 7.2L45.8667 10.9333L45.0667 10.1333ZM51.4667 28C50.9333 28.5333 50.3111 28.8 49.6 28.8C48.8889 28.8 48.2667 28.5333 47.7333 28L42.1333 22.4C41.6 21.8667 41.3333 21.2 41.3333 20.4C41.3333 19.6 41.6 18.9333 42.1333 18.4L57.0667 3.46666C57.6 2.93333 58.2667 2.66666 59.0667 2.66666C59.8667 2.66666 60.5333 2.93333 61.0667 3.46666L66.6667 9.06667C67.2 9.6 67.4667 10.2222 67.4667 10.9333C67.4667 11.6444 67.2 12.2667 66.6667 12.8L51.4667 28ZM77.0667 36.2667L74.9333 38.4C74.7556 38.5778 74.4889 38.6667 74.1333 38.6667C73.7778 38.6667 73.4222 38.5778 73.0667 38.4L58.9333 24.2667L62.9333 20.2667L77.0667 34.4C77.2444 34.7556 77.3333 35.1111 77.3333 35.4667C77.3333 35.8222 77.1555 36.0889 76.8 36.2667H77.0667Z" fill="#F79E10"/>
</g>
<defs>
<clipPath id="clip0_0_637">
<rect width="80" height="80" fill="white" transform="matrix(1 0 0 -1 0 80)"/>
</clipPath>
</defs>
</svg>
