<svg width="80" height="80" viewBox="0 0 80 80" fill="none" xmlns="http://www.w3.org/2000/svg">
<path d="M9.86628 71.7334C9.86628 72.089 9.91072 72.3112 9.99961 72.4001C10.0885 72.489 10.1329 72.5334 10.1329 72.5334C10.1329 72.5334 11.9107 73.5112 15.4663 75.4668C15.6441 75.6445 15.9107 75.6445 16.2663 75.4668L34.6663 64.8001V72.5334C34.6663 72.889 34.8441 73.0668 35.1996 73.0668L37.3329 74.4001C38.5774 75.1112 39.1996 75.4668 39.1996 75.4668C39.3774 75.6445 39.6441 75.6445 39.9996 75.4668L69.8663 58.1334C70.2218 57.9557 70.3996 57.7779 70.3996 57.6001L70.1329 22.9334C70.1329 22.7556 70.0441 22.5779 69.8663 22.4001L67.4663 21.0668C66.2218 20.3557 65.6885 20.0001 65.8663 20.0001C65.5107 19.8223 65.244 19.8223 65.0663 20.0001L55.1996 25.8668V8.26676C55.1996 7.9112 55.0218 7.64454 54.6663 7.46676L49.3329 4.53342C49.1552 4.35565 48.9774 4.35565 48.7996 4.53342L43.9996 7.2001C43.6441 7.37787 43.5996 7.68898 43.8663 8.13343C44.1329 8.57787 44.444 8.7112 44.7996 8.53342L49.0663 5.86676L52.7996 8.26676L49.5996 9.86676C26.8441 23.0223 15.5552 29.6001 15.7329 29.6001L15.1996 29.3334C12.8885 27.9112 11.8218 27.289 11.9996 27.4668L37.3329 12.8001C37.6885 12.6223 37.7329 12.3112 37.4663 11.8668C37.1996 11.4223 36.8885 11.289 36.5329 11.4668L10.1329 26.6668C9.77739 26.8445 9.59961 27.1112 9.59961 27.4668L9.86628 71.7334ZM53.5996 9.6001V22.4001L42.6663 28.5334V15.7334L50.9329 10.9334C52.8885 9.86676 53.7774 9.42232 53.5996 9.6001ZM48.2663 57.6001L40.2663 62.1334V52.2668L48.2663 47.4668V57.6001ZM49.8663 35.2001L59.1996 29.8668V39.4668L49.8663 44.8001V35.2001ZM48.2663 36.2668V45.8668L40.2663 50.4001V40.8001L48.2663 36.2668ZM40.2663 64.0001L48.2663 59.2001L48.5329 68.8001L40.2663 73.6001V64.0001ZM49.8663 58.4001L59.1996 53.0668V62.6668L49.8663 68.0001V58.4001ZM49.8663 56.8001V46.6668L59.1996 41.3334V51.2001L49.8663 56.8001ZM60.7996 40.2668L68.7996 35.7334V45.8668L60.7996 50.4001V40.2668ZM68.7996 24.2668V33.8668L60.7996 38.6668L60.5329 29.0668L66.9329 25.3334C68.1774 24.6223 68.7996 24.2668 68.7996 24.2668ZM34.9329 37.3334C34.7552 37.5112 34.6663 37.7779 34.6663 38.1334V47.4668C34.6663 48.3557 34.6663 48.7112 34.6663 48.5334L28.7996 52.0001V38.4001L41.3329 31.2001V33.8668L34.9329 37.3334ZM16.5329 45.6001L27.1996 39.2001L27.4663 52.8001L16.5329 58.9334V51.7334C16.5329 47.1112 16.5329 45.0668 16.5329 45.6001ZM28.7996 36.5334V23.7334L41.3329 16.5334V29.3334L28.7996 36.5334ZM27.1996 24.8001V37.6001L16.5329 43.7334V30.9334L21.0663 28.2668C25.5107 25.7779 27.5552 24.6223 27.1996 24.8001ZM11.1996 71.4668V28.8001L14.9329 30.9334C14.9329 31.4668 14.9329 31.7334 14.9329 31.7334V31.2001C14.9329 31.0223 14.9329 30.9334 14.9329 30.9334V73.6001L11.1996 71.4668ZM16.5329 60.8001L27.4663 54.4001V67.2001L16.5329 73.6001V60.8001ZM28.7996 66.4001V53.6001L34.6663 50.1334V63.2001L28.7996 66.4001ZM36.2663 39.2001C36.2663 39.3779 36.7107 39.689 37.5996 40.1334C38.4885 40.5779 38.8441 40.8001 38.6663 40.8001L38.9329 73.6001L36.2663 72.0001C36.2663 71.4668 36.2663 71.3779 36.2663 71.7334C36.2663 72.089 36.2663 72.089 36.2663 71.7334V39.2001ZM60.7996 61.8668V52.2668L68.7996 47.4668V57.0668L60.7996 61.8668ZM65.3329 21.6001L67.9996 22.9334L39.4663 39.4668L36.7996 38.1334L65.3329 21.6001ZM42.6663 32.8001V30.4001L53.5996 24.0001V26.6668L42.6663 32.8001ZM39.9996 11.2001L42.3996 9.86676C42.7552 9.68898 42.7996 9.37787 42.5329 8.93343C42.2663 8.48898 41.9552 8.35565 41.5996 8.53342L39.1996 9.86676C38.8441 10.0445 38.7996 10.3557 39.0663 10.8001C39.3329 11.2445 39.6441 11.3779 39.9996 11.2001Z" fill="#F79E10"/>
</svg>
